# xmcd
#
# Track frame offsets:
#   150
#   13267
#   25739
#   41768
#   53491
#   67992
#   85691
#   95809
#   106820
#   116251
#   129036
#   143313
#   154859
#   173109
#   185038
#   192996
#   204852
#   217859
#
# Disc length: 3051 seconds
#
# Revision: 0
# Processed by: cddbd v1.5.1PL0 Copyright (c) Steve Scherf et al.
# Submitted via: uFREEDB 1.6.0
#
DISCID=e10be912
DTITLE=Diversos - O Melhor de Sertanejo
DYEAR=1900
DGENRE=Country
TTITLE0=Bailão do Peão (Eliana de Lima)
TTITLE1=Mexe Mexe (Patrulha do Samba)
TTITLE2=Festa de Rodeio (Renato Teixeira)
TTITLE3=Moreninha Linda (Art Final)
TTITLE4=Eu Me Amarrei ( Grupo 100%)
TTITLE5=Estou Apaixonado (Tim Maia)
TTITLE6=Panela Velha (Joãozinho Carnaval)
TTITLE7=Pinga Ne Mim (Pivete and Branco)
TTITLE8=60 Dias Apaixonado(Joãozinho Carnavalesco)
TTITLE9=Ela Chora, Chora (desc)
TTITLE10=É o Amor ( desc)
TTITLE11=Cana Verde ( desc)
TTITLE12=Talismã ( desc)
TTITLE13=Rio de Lágrimas (desc)
TTITLE14=estrada da Vida (desc)
TTITLE15=Nascemos Pra Cantar (Shambala)
TTITLE16=Fio de Cabelo   (desc)
TTITLE17=Saudade da Minha Terra
EXTD=
EXTT0=
EXTT1=
EXTT2=
EXTT3=
EXTT4=
EXTT5=
EXTT6=
EXTT7=
EXTT8=
EXTT9=
EXTT10=
EXTT11=
EXTT12=
EXTT13=
EXTT14=
EXTT15=
EXTT16=
EXTT17=
PLAYORDER=
